Coordinates
version=1
nRows=26
nColumns=27
inDegrees=yes

Units are S.I. units (second, meters, Newtons, ...)
Angles are in degrees.

endheader
time	pelvis_rotation	pelvis_list	pelvis_tilt	pelvis_tx	pelvis_ty	pelvis_tz	hip_flexion_r	hip_adduction_r	hip_rotation_r	knee_angle_r	knee_adduction_r	knee_rotation_r	ankle_angle_r	ankle_rot_r	subtalar_angle_r	mtp_angle_r	hip_flexion_l	hip_adduction_l	hip_rotation_l	knee_angle_l	knee_adduction_l	knee_rotation_l	ankle_angle_l	ankle_rot_l	subtalar_angle_l	mtp_angle_l
      0.68000000	     -2.99765010	      1.51355588	      3.53201224	      0.16889475	      0.92001186	     -0.27876137	     -3.89353706	     -1.72748008	     10.27572160	    -46.27322412	      9.97252159	     -5.41778409	     -2.57046979	    -10.04552009	      0.00000000	      0.00000000	     14.77694031	     -0.06008844	    -10.08302768	    -20.51626883	      4.08416202	    -21.64671413	      5.40681792	     19.21585215	      0.00000000	      0.00000000
      0.69000000	     -2.97954333	      2.11480772	      3.48427077	      0.17994618	      0.92090812	     -0.27957795	     -2.05682334	     -2.35304149	      9.72927761	    -49.14717688	      9.68808718	     -5.00021772	     -2.56279642	    -10.40150528	      0.00000000	      0.00000000	     13.87793474	      0.59352749	    -10.37744588	    -20.25293318	      4.19565801	    -21.37739358	      6.06366367	     19.21217077	      0.00000000	      0.00000000
      0.70000000	     -3.00107638	      2.62120525	      3.46347427	      0.19077451	      0.92179204	     -0.28032408	     -0.20363642	     -2.86959137	      8.86983297	    -51.83993817	      9.04239961	     -4.58189728	     -1.91980879	    -10.69893870	      0.00000000	      0.00000000	     12.95532555	      1.14408569	    -10.59529693	    -19.96620597	      4.33079472	    -21.12940567	      6.69658051	     19.16902049	      0.00000000	      0.00000000
      0.71000000	     -3.05074605	      3.01644925	      3.47190114	      0.20141301	      0.92270809	     -0.28103254	      1.64100044	     -3.26361288	      7.68550549	    -54.27242201	      8.03236478	     -4.18182207	     -0.82965877	    -10.88015385	      0.00000000	      0.00000000	     12.00524451	      1.58240757	    -10.72038876	    -19.65107373	      4.48523795	    -20.93917016	      7.29747897	     19.11064844	      0.00000000	      0.00000000
      0.72000000	     -3.11406600	      3.29067112	      3.50865644	      0.21189086	      0.92368508	     -0.28174038	      3.45758722	     -3.52971862	      6.18179658	    -56.37883156	      6.68353437	     -3.79913299	      0.52377773	    -10.90749498	      0.00000000	      0.00000000	     11.02997584	      1.90760288	    -10.75545023	    -19.30938495	      4.64486763	    -20.81522168	      7.86494451	     19.04875254	      0.00000000	      0.00000000
      0.73000000	     -3.18089842	      3.44026731	      3.56240291	      0.22223723	      0.92472393	     -0.28247792	      5.24069261	     -3.67004349	      4.40162741	    -58.11340649	      5.06094633	     -3.40002670	      1.99481428	    -10.79771723	      0.00000000	      0.00000000	     10.04425586	      2.12340191	    -10.72975397	    -18.94819669	      4.78778576	    -20.75182508	      8.39971404	     19.00706009	      0.00000000	      0.00000000
      0.74000000	     -3.23899771	      3.47026453	      3.62445313	      0.23247895	      0.92581480	     -0.28327205	      6.98273796	     -3.69658607	      2.41697124	    -59.44481539	      3.26250269	     -2.96878635	      3.46997780	    -10.56851901	      0.00000000	      0.00000000	      9.05710843	      2.24102071	    -10.64579119	    -18.56852257	      4.90503583	    -20.74190128	      8.90485282	     18.97774066	      0.00000000	      0.00000000
      0.75000000	     -3.28101976	      3.39343525	      3.68195602	      0.24264547	      0.92693308	     -0.28413729	      8.68106035	     -3.62964607	      0.33934994	    -60.35926101	      1.42065365	     -2.47349116	      4.87634284	    -10.27842647	      0.00000000	      0.00000000	      8.07968058	      2.27537419	    -10.50896541	    -18.16853722	      4.99283143	    -20.78054288	      9.38182596	     18.96024323	      0.00000000	      0.00000000
      0.76000000	     -3.30417271	      3.22931338	      3.72661455	      0.25276604	      0.92805205	     -0.28507100	     10.32791756	     -3.49413931	     -1.69654542	    -60.85640814	     -0.31813536	     -1.89438995	      6.17092816	     -9.99006703	      0.00000000	      0.00000000	      7.11635414	      2.24372498	    -10.32213307	    -17.74372917	      5.05518144	    -20.86658283	      9.83068072	     18.95367438	      0.00000000	      0.00000000
      0.77000000	     -3.30807012	      3.00034111	      3.75122541	      0.26286705	      0.92914095	     -0.28605840	     11.91494666	     -3.31521336	     -3.55089347	    -60.94691214	     -1.81071248	     -1.23229575	      7.33312201	     -9.75695897	      0.00000000	      0.00000000	      6.17030769	      2.16289099	    -10.08194814	    -17.29049731	      5.10287804	    -20.99925029	     10.25325071	     18.94981317	      0.00000000	      0.00000000
      0.78000000	     -3.29392634	      2.72948514	      3.75274599	      0.27297149	      0.93017118	     -0.28707549	     13.43032815	     -3.11581387	     -5.10232220	    -60.64823744	     -2.93996977	     -0.50656661	      8.35808585	     -9.61969215	      0.00000000	      0.00000000	      5.24216319	      2.04842621	     -9.79592345	    -16.80989534	      5.14460358	    -21.17292063	     10.65071726	     18.94935412	      0.00000000	      0.00000000
      0.79000000	     -3.26381512	      2.43819399	      3.73026440	      0.28309785	      0.93111521	     -0.28809403	     14.86253233	     -2.91501993	     -6.26375177	    -59.98043802	     -3.62930965	      0.23862507	      9.24699809	     -9.59632190	      0.00000000	      0.00000000	      4.33142567	      1.91372982	     -9.47450472	    -16.30566918	      5.18867361	    -21.38046557	     11.02641585	     18.95305762	      0.00000000	      0.00000000
      0.80000000	     -3.21855374	      2.14617435	      3.68282419	      0.29326081	      0.93194460	     -0.28909125	     16.20306434	     -2.73065244	     -6.98990015	    -58.96294998	     -3.84597274	      0.94299128	     10.00795552	     -9.68663368	      0.00000000	      0.00000000	      3.43844022	      1.77247337	     -9.12647228	    -15.78172765	      5.24115949	    -21.61731039	     11.38343139	     18.96306102	      0.00000000	      0.00000000
      0.81000000	     -3.15646319	      1.86932774	      3.61178304	      0.30347368	      0.93263459	     -0.29005056	     17.44358154	     -2.57771465	     -7.28185285	    -57.61037672	     -3.60273203	      1.53382478	     10.65086100	     -9.86988503	      0.00000000	      0.00000000	      2.56089751	      1.63659725	     -8.75642928	    -15.24018247	      5.30616041	    -21.88099501	     11.72650295	     18.98047068	      0.00000000	      0.00000000
      0.82000000	     -3.07345793	      1.61800877	      3.51838083	      0.31375026	      0.93316319	     -0.29095982	     18.57743393	     -2.46653977	     -7.17477316	    -55.92999683	     -2.94546655	      1.92980700	     11.18355062	    -10.10956905	      0.00000000	      0.00000000	      1.69706694	      1.51395411	     -8.36839984	    -14.68274216	      5.38505656	    -22.16893835	     12.06136244	     19.00959189	      0.00000000	      0.00000000
      0.83000000	     -2.95960197	      1.39656825	      3.41000809	      0.32410519	      0.93352019	     -0.29181355	     19.59230887	     -2.40362772	     -6.75230038	    -53.92238341	     -1.96057609	      2.05617326	     11.60802142	    -10.35253841	      0.00000000	      0.00000000	      0.83882623	      1.40738947	     -7.95714489	    -14.11032681	      5.47826777	    -22.47747647	     12.39347578	     19.04984728	      0.00000000	      0.00000000
      0.84000000	     -2.80571069	      1.20631397	      3.28905386	      0.33455322	      0.93369493	     -0.29260773	     20.48255552	     -2.39191653	     -6.10644709	    -51.58594826	     -0.74540900	      1.84823103	     11.91404000	    -10.54245104	      0.00000000	      0.00000000	     -0.01535936	      1.31676435	     -7.52029776	    -13.52570692	      5.58355276	    -22.80687209	     12.72240710	     19.10790314	      0.00000000	      0.00000000
      0.85000000	     -2.60307161	      1.04683446	      3.15886611	      0.34510866	      0.93368324	     -0.29333885	     21.24315787	     -2.43172616	     -5.34700414	    -48.92194395	      0.58626476	      1.27129933	     12.08239678	    -10.62525004	      0.00000000	      0.00000000	     -0.86809530	      1.24031026	     -7.05470230	    -12.93191072	      5.69766782	    -23.15209257	     13.04667358	     19.18598732	      0.00000000	      0.00000000
      0.86000000	     -2.34700136	      0.91740341	      3.02375738	      0.35579117	      0.93348650	     -0.29400104	     21.86989722	     -2.51995427	     -4.58958013	    -45.93950747	      1.91488397	      0.33359209	     12.09022406	    -10.56038663	      0.00000000	      0.00000000	     -1.72372829	      1.17536822	     -6.56311189	    -12.33199951	      5.81677659	    -23.51209160	     13.36291430	     19.29348352	      0.00000000	      0.00000000
      0.87000000	     -2.03372903	      0.81738800	      2.88797823	      0.36662015	      0.93310878	     -0.29458945	     22.36090640	     -2.65198191	     -3.95405520	    -42.65860726	      3.12433884	     -0.93070133	     11.91392659	    -10.29659127	      0.00000000	      0.00000000	     -2.58709910	      1.11888085	     -6.03706632	    -11.72843116	      5.94074227	    -23.87870798	     13.67106785	     19.41521626	      0.00000000	      0.00000000
      0.88000000	     -1.66753712	      0.74807415	      2.75357932	      0.37760997	      0.93255084	     -0.29509524	     22.71985248	     -2.82096374	     -3.53378988	    -39.11598222	      4.12639268	     -2.43343743	     11.54560567	     -9.82112011	      0.00000000	      0.00000000	     -3.45897933	      1.06968064	     -5.49178721	    -11.12660282	      6.06504707	    -24.25624370	     13.97129444	     19.57253756	      0.00000000	      0.00000000
      0.89000000	     -1.25085531	      0.71240466	      2.62332598	      0.38876734	      0.93181170	     -0.29551174	     22.95214584	     -3.02177382	     -3.40669819	    -35.36477691	      4.86250028	     -4.05797520	     10.98929255	     -9.12077723	      0.00000000	      0.00000000	     -4.33948526	      1.02866043	     -4.93103372	    -10.53434835	      6.18765395	    -24.63002921	     14.26877733	     19.74888346	      0.00000000	      0.00000000
      0.90000000	     -0.78643255	      0.71575904	      2.50186001	      0.40009157	      0.93088843	     -0.29583665	     23.06443611	     -3.25166630	     -3.62766506	    -31.47513002	      5.30996019	     -5.64481776	     10.26963585	     -8.21617095	      0.00000000	      0.00000000	     -5.22986342	      0.99929367	     -4.34470086	     -9.95849241	      6.31006561	    -25.00845357	     14.56642960	     19.94078074	      0.00000000	      0.00000000
      0.91000000	     -0.29015485	      0.75781747	      2.40826175	      0.41158117	      0.92978986	     -0.29605475	     23.05070494	     -3.49695839	     -4.19607641	    -27.52317844	      5.49234184	     -7.05349545	      9.41994005	     -7.13229454	      0.00000000	      0.00000000	     -6.14447548	      0.98029456	     -3.79306094	     -9.41989832	      6.42284815	    -25.33538837	     14.87087871	     20.14428824	      0.00000000	      0.00000000
      0.92000000	      0.23536457	      0.84105653	      2.34096601	      0.42322970	      0.92850408	     -0.29617005	     22.93185388	     -3.75445490	     -5.10698742	    -23.60048360	      5.45553920	     -8.12407276	      8.49209668	     -5.93403121	      0.00000000	      0.00000000	     -7.07574867	      0.97411315	     -3.24499516	     -8.92757451	      6.53051324	    -25.62813189	     15.18860712	     20.34351182	      0.00000000	      0.00000000
      0.93000000	      0.77583134	      0.96000308	      2.30914101	      0.43502687	      0.92703632	     -0.29617862	     22.72068227	     -4.01032998	     -6.30058375	    -19.79861349	      5.27164302	     -8.76183331	      7.54826865	     -4.69009147	      0.00000000	      0.00000000	     -8.02500989	      0.97653556	     -2.73554310	     -8.50223258	      6.62754919	    -25.84748815	     15.52682852	     20.52740913	      0.00000000	      0.00000000
